<?xml version="1.0" encoding="UTF-8"?>
<svg width="24px" height="24px" viewBox="0 0 24 24" version="1.1" xmlns="http://www.w3.org/2000/svg" xmlns:xlink="http://www.w3.org/1999/xlink">
    <!-- Facebook Icon with #EAEDFF color (matching your other social icons) -->
    <g stroke="none" stroke-width="1" fill="none" fill-rule="evenodd">
        <path d="M24,12 C24,5.37258267 18.6274173,0 12,0 C5.37258267,0 0,5.37258267 0,12 C0,17.9895035 4.38825961,22.954507 10.125,23.8542906 L10.125,15.4687195 L7.07868154,15.4687195 L7.07868154,12 L10.125,12 L10.125,9.35626577 C10.125,6.348936 11.9165337,4.6875 14.6575548,4.6875 C15.9705447,4.6875 17.3438192,4.92187305 17.3438192,4.92187305 L17.3438192,7.875 L15.8306276,7.875 C14.3399883,7.875 13.875,8.8 13.875,9.74876833 L13.875,12 L17.2031219,12 L16.6711403,15.4687195 L13.875,15.4687195 L13.875,23.8542906 C19.6117404,22.954507 24,17.9895035 24,12" fill="#EAEDFF" fill-rule="nonzero"></path>
    </g>
</svg>